<svg xmlns="http://www.w3.org/2000/svg" width="35" height="40" viewBox="0 0 35 40"><g id="Group_54" data-name="Group 54" transform="translate(632 -3348)"><rect id="Rectangle_40" width="5" height="5" fill="#fff" data-name="Rectangle 40" transform="translate(-632 3363)"/><rect id="Rectangle_43" width="5" height="5" fill="#fff" data-name="Rectangle 43" transform="translate(-627 3358)"/><rect id="Rectangle_44" width="5" height="5" fill="#fff" data-name="Rectangle 44" transform="translate(-622 3353)"/><rect id="Rectangle_45" width="5" height="5" fill="#fff" data-name="Rectangle 45" transform="translate(-617 3348)"/><rect id="Rectangle_46" width="5" height="5" fill="#fff" data-name="Rectangle 46" transform="translate(-612 3353)"/><rect id="Rectangle_47" width="5" height="5" fill="#fff" data-name="Rectangle 47" transform="translate(-607 3358)"/><rect id="Rectangle_48" width="5" height="5" fill="#fff" data-name="Rectangle 48" transform="translate(-602 3363)"/><rect id="Rectangle_41" width="5" height="5" fill="#fff" data-name="Rectangle 41" transform="translate(-617 3368)"/><rect id="Rectangle_42" width="5" height="5" fill="#fff" data-name="Rectangle 42" transform="translate(-622 3373)"/><rect id="Rectangle_49" width="5" height="5" fill="#fff" data-name="Rectangle 49" transform="translate(-627 3378)"/><rect id="Rectangle_50" width="5" height="5" fill="#fff" data-name="Rectangle 50" transform="translate(-632 3383)"/><rect id="Rectangle_51" width="5" height="5" fill="#fff" data-name="Rectangle 51" transform="translate(-612 3373)"/><rect id="Rectangle_52" width="5" height="5" fill="#fff" data-name="Rectangle 52" transform="translate(-607 3378)"/><rect id="Rectangle_53" width="5" height="5" fill="#fff" data-name="Rectangle 53" transform="translate(-602 3383)"/></g></svg>